<svg width="70" height="40" viewBox="0 0 70 40" fill="none" xmlns="http://www.w3.org/2000/svg">
  <path d="M35 4.34844C35 2.63974 37.0042 1.71792 38.3016 2.82993L51.1984 13.8844C51.9474 14.5263 53.0526 14.5263 53.8016 13.8844L66.6984 2.82992C67.9958 1.71791 70 2.63973 70 4.34844V38C70 39.1046 69.1046 40 68 40H37C35.8954 40 35 39.1046 35 38V4.34844Z" fill="#FF4848"/>
  <path d="M0 1C0 0.447715 0.447715 0 1 0H20V6H1C0.447716 6 0 5.55228 0 5V1Z" fill="#A0A0A0"/>
  <path d="M0 21C0 20.4477 0.447715 20 1 20H20V26H1C0.447716 26 0 25.5523 0 25V21Z" fill="#A0A0A0"/>
  <path d="M0 15C0 14.4477 0.447715 14 1 14H20V20H1C0.447716 20 0 19.5523 0 19V15Z" fill="#A0A0A0"/>
  <path d="M0 35C0 34.4477 0.447715 34 1 34H20V40H1C0.447716 40 0 39.5523 0 39V35Z" fill="#A0A0A0"/>
  <path fill-rule="evenodd" clip-rule="evenodd" d="M20 20C25.5229 20 30 15.5229 30 10C30 4.47715 25.5229 0 20 0C15.8994 0 12.3752 2.46819 10.8321 6H20C22.2091 6 24 7.79086 24 10C24 12.2091 22.2091 14 20 14H10.8321C12.3752 17.5318 15.8994 20 20 20Z" fill="#A0A0A0"/>
  <path fill-rule="evenodd" clip-rule="evenodd" d="M20 40C25.5229 40 30 35.5228 30 30C30 24.4772 25.5229 20 20 20C15.8994 20 12.3752 22.4682 10.8321 26H20C22.2091 26 24 27.7909 24 30C24 32.2091 22.2091 34 20 34H10.8321C12.3752 37.5318 15.8994 40 20 40Z" fill="#A0A0A0"/>
  <rect x="2" y="26" width="4" height="8" fill="#A0A0A0"/>
  <rect x="2" y="6" width="4" height="8" fill="#A0A0A0"/>
</svg>
